<?xml version="1.0" encoding="UTF-8" standalone="no"?>
<!-- Generator: Adobe Illustrator 18.1.1, SVG Export Plug-In . SVG Version: 6.00 Build 0)  -->

<svg
   xmlns:dc="http://purl.org/dc/elements/1.1/"
   xmlns:cc="http://creativecommons.org/ns#"
   xmlns:rdf="http://www.w3.org/1999/02/22-rdf-syntax-ns#"
   xmlns:svg="http://www.w3.org/2000/svg"
   xmlns="http://www.w3.org/2000/svg"
   xmlns:sodipodi="http://sodipodi.sourceforge.net/DTD/sodipodi-0.dtd"
   xmlns:inkscape="http://www.inkscape.org/namespaces/inkscape"
   version="1.1"
   id="Capa_1"
   x="0px"
   y="0px"
   viewBox="0 0 120.24921 25.67675"
   xml:space="preserve"
   sodipodi:docname="logo.svg"
   width="120.24921"
   height="25.67675"
   inkscape:version="0.92.2 5c3e80d, 2017-08-06"><metadata
     id="metadata45"><rdf:RDF><cc:Work
         rdf:about=""><dc:format>image/svg+xml</dc:format><dc:type
           rdf:resource="http://purl.org/dc/dcmitype/StillImage" /><dc:title></dc:title></cc:Work></rdf:RDF></metadata><defs
     id="defs43" /><sodipodi:namedview
     pagecolor="#ffffff"
     bordercolor="#666666"
     borderopacity="1"
     objecttolerance="10"
     gridtolerance="10"
     guidetolerance="10"
     inkscape:pageopacity="0"
     inkscape:pageshadow="2"
     inkscape:window-width="2281"
     inkscape:window-height="806"
     id="namedview41"
     showgrid="false"
     fit-margin-top="0"
     fit-margin-left="0"
     fit-margin-right="0"
     fit-margin-bottom="0"
     inkscape:zoom="6.4990926"
     inkscape:cx="56.544443"
     inkscape:cy="23.066092"
     inkscape:window-x="0"
     inkscape:window-y="22"
     inkscape:window-maximized="0"
     inkscape:current-layer="Capa_1" /><g
     id="g8"
     transform="translate(-5e-4)"
     style="fill:#130654;fill-opacity:1"><g
       id="g6"
       style="fill:#130654;fill-opacity:1"><path
         style="fill:#130654;fill-opacity:1"
         d="m 15.865,0 c -5.42,0 -9.812,4.393 -9.812,9.813 0,1.994 0.598,3.846 1.619,5.394 h -0.66 v 1.44 C 6.378,16.439 5.655,16.58 5.151,17.084 l -4.615,4.614 c -0.714,0.713 -0.714,1.869 0,2.583 l 0.86,0.861 c 0.714,0.713 1.871,0.713 2.584,0 l 4.615,-4.614 c 0.2,-0.2 0.338,-0.437 0.426,-0.688 h 0.273 v -2.754 c 1.74,1.574 4.04,2.54 6.571,2.54 5.42,0 9.813,-4.393 9.813,-9.813 C 25.678,4.393 21.285,0 15.865,0 Z m 0,17.811 c -4.418,0 -7.997,-3.58 -7.997,-7.998 0,-4.418 3.579,-7.998 7.997,-7.998 4.418,0 7.997,3.58 7.997,7.998 0,4.418 -3.58,7.998 -7.997,7.998 z"
         id="path2"
         inkscape:connector-curvature="0" /><path
         style="fill:#130654;fill-opacity:1"
         d="M 22.809,10.487 C 22.252,8.87 20.082,5.813 15.864,5.813 c -4.217,0 -6.387,3.057 -6.945,4.674 -0.18,0.522 0.097,1.091 0.619,1.271 0.521,0.178 1.091,-0.097 1.271,-0.619 0.003,-0.008 0.069,-0.187 0.209,-0.453 0.405,2.318 2.415,4.085 4.849,4.085 2.43,0 4.439,-1.761 4.848,-4.074 0.127,0.244 0.193,0.415 0.202,0.443 0.144,0.413 0.532,0.673 0.947,0.673 0.108,0 0.219,-0.018 0.326,-0.055 0.524,-0.18 0.8,-0.749 0.619,-1.271 z m -6.941,3.451 c -2.249,0 -3.898,-1.406 -4.065,-4.372 0.484,-0.54 1.168,-1.091 2.11,-1.428 -0.389,0.452 -0.632,1.033 -0.632,1.675 0,1.426 1.157,2.583 2.583,2.583 1.426,0 2.583,-1.157 2.583,-2.583 0,-0.643 -0.244,-1.225 -0.633,-1.677 0.973,0.346 1.671,0.919 2.157,1.475 -0.179,3.105 -1.859,4.327 -4.103,4.327 z"
         id="path4"
         inkscape:connector-curvature="0" /></g></g><g
     id="g10"
     transform="translate(-5e-4)" /><g
     id="g12"
     transform="translate(-5e-4)" /><g
     id="g14"
     transform="translate(-5e-4)" /><g
     id="g16"
     transform="translate(-5e-4)" /><g
     id="g18"
     transform="translate(-5e-4)" /><g
     id="g20"
     transform="translate(-5e-4)" /><g
     id="g22"
     transform="translate(-5e-4)" /><g
     id="g24"
     transform="translate(-5e-4)" /><g
     id="g26"
     transform="translate(-5e-4)" /><g
     id="g28"
     transform="translate(-5e-4)" /><g
     id="g30"
     transform="translate(-5e-4)" /><g
     id="g32"
     transform="translate(-5e-4)" /><g
     id="g34"
     transform="translate(-5e-4)" /><g
     id="g36"
     transform="translate(-5e-4)" /><g
     id="g38"
     transform="translate(-5e-4)" /><g
     aria-label="GPSeer"
     transform="matrix(1.327946,0,0,1.327946,36.928807,-12.868561)"
     style="font-style:normal;font-variant:normal;font-weight:normal;font-stretch:normal;font-size:53.33333206px;line-height:1;font-family:sans-serif;-inkscape-font-specification:sans-serif;font-variant-ligatures:normal;font-variant-caps:normal;font-variant-numeric:normal;font-feature-settings:normal;text-align:center;writing-mode:lr-tb;text-anchor:middle;opacity:1;vector-effect:none;fill:#130654;fill-opacity:1;stroke:none;stroke-width:3.03521585;stroke-linecap:round;stroke-linejoin:miter;stroke-miterlimit:4;stroke-dasharray:none;stroke-dashoffset:0;stroke-opacity:1"
     id="flowRoot47"><path
       d="m 5.9521478,25.11914 q -0.7708334,0.989583 -2.2187501,1.520833 -1.4375,0.520833 -3.20833342,0.489583 -2.11458338,-0.02083 -3.42708348,-1.447916 -1.3125,-1.427084 -1.4375,-3.802084 -0.052083,-0.854167 0.0625,-1.666667 l 0.2604167,-1.729166 q 0.4895833,-3.1875 2.3020834,-5.083334 1.8229167,-1.90625 4.5208334,-1.854166 2.0833334,0.04167 3.3333335,1.239583 1.25,1.197917 1.3125,3.25 h -1.25 Q 6.1292311,14.452473 5.2438144,13.567056 4.3583977,12.681639 2.754231,12.639973 q -2.12500005,-0.05208 -3.60416676,1.53125 -1.46875004,1.583333 -1.89583344,4.354166 l -0.25,1.625 q -0.1041666,0.677084 -0.083333,1.395834 0.03125,2.0625 1,3.270833 0.9687501,1.197917 2.64583345,1.21875 2.67708345,0.05208 4.11458345,-1.3125 l 0.6875,-3.916667 H 1.4208976 l 0.1875,-1.083333 h 5.2187502 z"
       style="font-style:italic;font-variant:normal;font-weight:300;font-stretch:normal;font-size:21.33333397px;font-family:Roboto;-inkscape-font-specification:'Roboto Light Italic';fill:#130654;fill-opacity:1;stroke-width:3.03521585;stroke-miterlimit:4;stroke-dasharray:none"
       id="path917"
       inkscape:connector-curvature="0" /><path
       d="m 11.525064,20.744139 -1.072917,6.177084 H 9.1813141 l 2.6354169,-15.166667 4.9375,0.01042 q 2.125,0.0625 3.28125,1.260416 1.15625,1.1875 0.979167,3.1875 -0.208334,2.125 -1.71875,3.333334 -1.510417,1.208333 -3.9375,1.208333 z m 0.1875,-1.083333 3.697917,0.01042 q 1.802083,0 2.96875,-0.916667 1.166667,-0.916667 1.364583,-2.53125 0.166667,-1.541667 -0.666666,-2.427083 -0.822917,-0.895834 -2.354167,-0.9375 l -3.822917,-0.01042 z"
       style="font-style:italic;font-variant:normal;font-weight:300;font-stretch:normal;font-size:21.33333397px;font-family:Roboto;-inkscape-font-specification:'Roboto Light Italic';fill:#130654;fill-opacity:1;stroke-width:3.03521585;stroke-miterlimit:4;stroke-dasharray:none"
       id="path919"
       inkscape:connector-curvature="0" /><path
       d="m 31.004232,23.11914 q 0.239583,-1.958334 -2.09375,-2.875001 l -1.989584,-0.71875 -0.645833,-0.260416 q -2.958334,-1.260417 -2.739584,-3.71875 0.09375,-1.208334 0.854167,-2.125 0.760417,-0.916667 2,-1.40625 1.25,-0.5 2.645834,-0.46875 1.34375,0.03125 2.395833,0.625 1.0625,0.583333 1.583333,1.604166 0.53125,1.020834 0.416667,2.302084 h -1.28125 q 0.145833,-1.541667 -0.729167,-2.46875 -0.864583,-0.927084 -2.447916,-0.96875 -1.645834,-0.02083 -2.822917,0.760416 -1.166667,0.770834 -1.333334,2.114584 -0.135416,1.072916 0.625001,1.833333 0.770833,0.75 2.666666,1.3125 2.416667,0.770833 3.354167,1.84375 0.947917,1.072917 0.822917,2.583334 -0.114584,1.25 -0.875,2.177083 -0.760417,0.916667 -2.03125,1.40625 -1.270834,0.489583 -2.729167,0.458333 -1.447917,-0.01042 -2.614584,-0.59375 -1.15625,-0.583333 -1.739583,-1.59375 -0.572917,-1.020833 -0.458333,-2.354166 h 1.270833 q -0.15625,1.583333 0.84375,2.520833 1.010417,0.927083 2.760417,0.947917 1.75,0.02083 2.9375,-0.791667 1.197917,-0.8125 1.354167,-2.145833 z"
       style="font-style:italic;font-variant:normal;font-weight:300;font-stretch:normal;font-size:21.33333397px;font-family:Roboto;-inkscape-font-specification:'Roboto Light Italic';fill:#130654;fill-opacity:1;stroke-width:3.03521585;stroke-miterlimit:4;stroke-dasharray:none"
       id="path921"
       inkscape:connector-curvature="0" /><path
       d="m 38.57715,27.129556 q -1.354167,-0.02083 -2.34375,-0.75 -0.989583,-0.739583 -1.458333,-2 -0.458334,-1.270833 -0.322917,-2.739583 l 0.03125,-0.354167 q 0.145833,-1.5625 0.927083,-2.96875 0.78125,-1.416667 1.979167,-2.15625 1.197917,-0.75 2.5625,-0.71875 1.260417,0.02083 2.125,0.6875 0.875,0.666667 1.270834,1.854167 0.395833,1.1875 0.25,2.625 l -0.08333,0.760416 h -7.802083 l -0.03125,0.250001 q -0.15625,1.135416 0.166666,2.177083 0.322917,1.03125 1.052084,1.645833 0.739583,0.604167 1.770833,0.625 1,0.03125 1.802084,-0.385416 0.802083,-0.416667 1.479166,-1.114584 l 0.729167,0.59375 q -0.760417,0.979167 -1.8125,1.489584 -1.041667,0.5 -2.291667,0.479166 z m 1.3125,-10.625 q -1.354167,-0.05208 -2.427083,0.958333 -1.072917,1.010417 -1.614584,2.84375 l 6.541667,0.01042 0.03125,-0.15625 q 0.1875,-1.479167 -0.520833,-2.541667 -0.708333,-1.072916 -2.010417,-1.114583 z"
       style="font-style:italic;font-variant:normal;font-weight:300;font-stretch:normal;font-size:21.33333397px;font-family:Roboto;-inkscape-font-specification:'Roboto Light Italic';fill:#130654;fill-opacity:1;stroke-width:3.03521585;stroke-miterlimit:4;stroke-dasharray:none"
       id="path923"
       inkscape:connector-curvature="0" /><path
       d="m 49.368814,27.129556 q -1.354166,-0.02083 -2.34375,-0.75 -0.989583,-0.739583 -1.458333,-2 -0.458334,-1.270833 -0.322917,-2.739583 l 0.03125,-0.354167 q 0.145833,-1.5625 0.927083,-2.96875 0.78125,-1.416667 1.979167,-2.15625 1.197917,-0.75 2.5625,-0.71875 1.260417,0.02083 2.125,0.6875 0.875,0.666667 1.270834,1.854167 0.395833,1.1875 0.25,2.625 l -0.08333,0.760416 h -7.802083 l -0.03125,0.250001 q -0.15625,1.135416 0.166666,2.177083 0.322917,1.03125 1.052084,1.645833 0.739583,0.604167 1.770833,0.625 1,0.03125 1.802084,-0.385416 0.802083,-0.416667 1.479166,-1.114584 l 0.729167,0.59375 q -0.760417,0.979167 -1.8125,1.489584 -1.041667,0.5 -2.291667,0.479166 z m 1.3125,-10.625 q -1.354166,-0.05208 -2.427083,0.958333 -1.072917,1.010417 -1.614584,2.84375 l 6.541667,0.01042 0.03125,-0.15625 q 0.1875,-1.479167 -0.520833,-2.541667 -0.708333,-1.072916 -2.010417,-1.114583 z"
       style="font-style:italic;font-variant:normal;font-weight:300;font-stretch:normal;font-size:21.33333397px;font-family:Roboto;-inkscape-font-specification:'Roboto Light Italic';fill:#130654;fill-opacity:1;stroke-width:3.03521585;stroke-miterlimit:4;stroke-dasharray:none"
       id="path925"
       inkscape:connector-curvature="0" /><path
       d="m 62.577149,16.702473 q -0.40625,-0.08333 -0.822917,-0.09375 -1.1875,0 -2.177083,0.729166 -0.989584,0.71875 -1.322917,1.833334 l -1.333333,7.75 h -1.229167 l 1.958333,-11.270834 h 1.21875 l -0.375,1.791667 q 0.614584,-1 1.479167,-1.520833 0.875,-0.520834 1.916667,-0.5 0.364583,0 0.854167,0.145833 z"
       style="font-style:italic;font-variant:normal;font-weight:300;font-stretch:normal;font-size:21.33333397px;font-family:Roboto;-inkscape-font-specification:'Roboto Light Italic';fill:#130654;fill-opacity:1;stroke-width:3.03521585;stroke-miterlimit:4;stroke-dasharray:none"
       id="path927"
       inkscape:connector-curvature="0" /></g></svg>